<?xml version="1.0" encoding="utf-8"?>
<!-- Generator: Adobe Illustrator 22.0.1, SVG Export Plug-In . SVG Version: 6.00 Build 0)  -->
<svg version="1.1" xmlns="http://www.w3.org/2000/svg" xmlns:xlink="http://www.w3.org/1999/xlink" x="0px" y="0px"
	 viewBox="0 0 66.1 65" style="enable-background:new 0 0 66.1 65;" xml:space="preserve">
<style type="text/css">
	.st0{display:none;}
	.st1{display:inline;}
	.st2{fill:none;stroke:#C06126;stroke-width:2;stroke-miterlimit:10;}
	.st3{fill:#C06126;}
</style>
<g id="Layer_1" class="st0">
	<g class="st1">
		<path class="st2" d="M32.9,1.8C15.8,1.8,2,15.6,2,32.6s13.8,30.9,30.9,30.9c17.1,0,30.9-13.8,30.9-30.9S49.9,1.8,32.9,1.8z
			 M43.8,41.6c0,0.9-0.1,3.2-1.7,5.3c-1.1,1.4-2.3,2.2-2.9,2.5c-1.6,0.9-3.2,1.2-4.1,1.3v5.2h-4v-4.9c-5-1-9-4.6-9-4.6l3.6-3.8
			c0.4,0.4,3.6,3.8,7.5,3.1c0.6-0.1,2.8-0.5,3.9-2.3c0.2-0.3,0.7-1.2,0.4-2.4c-0.3-1.4-1.5-2.1-1.8-2.3c-2.8-1-5.1-2-6.7-2.8
			c-1.9-1-2.8-1.6-3.5-2.3c-1.4-1.4-2.1-2.9-2.5-4c-0.2-1-0.5-2.6,0.1-4.4c1-3.1,4-5.3,7.6-5.9l-0.1-4.7h4.8v4.8
			c0.9-0.1,2.5-0.1,4.3,0.7c1.5,0.6,2.6,1.5,3.2,2.1c-0.8,1.6-1.6,3.2-2.5,4.9c-0.5-0.6-1.4-1.7-3.1-2.5c-1.9-0.9-3.6-0.8-4-0.8
			c-1.2,0.1-3.3,0.3-4.3,1.9c-0.1,0.1-0.9,1.5-0.4,3c0.5,1.5,2,2.2,4.2,3.2c7.6,3.5,8.9,4.4,9.8,5.8C44,39.8,43.8,41.6,43.8,41.6z"
			/>
		<path class="st3" d="M32.9,31.9c-2.1-1-3.7-1.6-4.2-3.2c-0.5-1.5,0.3-2.9,0.4-3c1-1.7,3.1-1.8,4.3-1.9c0.5,0,2.2-0.1,4,0.8
			c1.6,0.8,2.6,1.9,3.1,2.5c0.8-1.6,1.6-3.2,2.5-4.9c-0.6-0.6-1.6-1.5-3.2-2.1c-1.8-0.7-3.4-0.7-4.3-0.7v-4.8h-4.8l0.1,4.7
			c-3.7,0.6-6.6,2.9-7.6,5.9c-0.6,1.8-0.4,3.4-0.1,4.4c0.4,1,1.1,2.6,2.5,4c0.8,0.7,1.6,1.3,3.5,2.3c1.6,0.8,3.8,1.9,6.7,2.8
			c0.2,0.1,1.5,0.8,1.8,2.3c0.2,1.1-0.3,2-0.4,2.4c-1,1.8-3.3,2.2-3.9,2.3c-3.9,0.7-7.1-2.7-7.5-3.1l-3.6,3.8c0,0,4,3.6,9,4.6v4.9h4
			v-5.2c0.9-0.1,2.4-0.3,4.1-1.3c0.6-0.3,1.8-1.1,2.9-2.5c1.6-2.1,1.7-4.4,1.7-5.3c0,0,0.1-1.9-1.2-4C41.8,36.2,40.5,35.3,32.9,31.9
			z"/>
	</g>
</g>
<g id="Layer_2">
	<g>
		<path class="st2" d="M33.6,20.6c-8.2-0.3-6.3,10.3-6.3,10.3h12.1C40.7,20.4,33.6,20.6,33.6,20.6z"/>
		<path class="st2" d="M33.3,1.8C16.2,1.8,2.4,15.6,2.4,32.6s13.8,30.9,30.9,30.9c17.1,0,30.9-13.8,30.9-30.9S50.3,1.8,33.3,1.8z
			 M46,48.7H20.4v-16c0-0.1,0.3-1.1,1.3-1.5c0.6-0.2,1.2-0.1,1.4-0.1c-0.8-15.8,10.1-14.5,10.1-14.5c12.4-0.2,10.1,14.1,10.1,14.1
			c0.3,0,0.9,0.1,1.5,0.3c0.7,0.3,1.2,0.8,1.4,1.1C46.1,37.6,46,43.1,46,48.7z"/>
		<path class="st3" d="M44.7,31c-0.6-0.3-1.1-0.3-1.5-0.3c0,0,2.3-14.3-10.1-14.1c0,0-10.9-1.3-10.1,14.5c-0.2-0.1-0.8-0.2-1.4,0.1
			c-1,0.4-1.3,1.3-1.3,1.5v16H46c0.1-5.5,0.1-11,0.2-16.6C45.9,31.8,45.5,31.3,44.7,31z M39.5,30.9H27.4c0,0-1.9-10.6,6.3-10.3
			C33.6,20.6,40.7,20.4,39.5,30.9z"/>
	</g>
</g>
<g id="Layer_3" class="st0">
	<g class="st1">
		<circle class="st2" cx="27" cy="46.8" r="3.3"/>
		<ellipse transform="matrix(0.9239 -0.3827 0.3827 0.9239 -14.2939 21.7647)" class="st2" cx="47.6" cy="46.8" rx="3.3" ry="3.3"/>
		<polygon class="st2" points="21,34.2 21,35.8 30.7,35.8 30.7,29.1 25.8,29.1 		"/>
		<path class="st2" d="M32.8,2C15.7,2,1.9,15.9,1.9,32.9s13.8,30.9,30.9,30.9c17.1,0,30.9-13.8,30.9-30.9S49.8,2,32.8,2z M53.8,46.6
			c0,0-0.3,6.4-7.1,6.4c0,0-4.9-0.3-5.2-6.3h-8.8c0,0,0.2,6.6-6,6.3c-6.3-0.3-5.5-6-5.5-6l-4.3-0.1V44h1.5V32.9l6.4-6.2h5.3v-5.8
			h26.1v25.8H53.8z"/>
		<path class="st3" d="M30.2,20.8v5.8h-5.3l-6.4,6.2V44h-1.5v2.9l4.3,0.1c0,0-0.8,5.7,5.5,6c6.3,0.3,6-6.3,6-6.3h8.8
			c0.3,6,5.2,6.3,5.2,6.3c6.8,0,7.1-6.4,7.1-6.4h2.4V20.8H30.2z M27,50.1c-1.8,0-3.3-1.5-3.3-3.3c0-1.8,1.5-3.3,3.3-3.3
			c1.8,0,3.3,1.5,3.3,3.3C30.3,48.6,28.8,50.1,27,50.1z M30.7,35.8H21v-1.6l4.8-5.1h4.8V35.8z M47.6,50.1c-1.8,0-3.3-1.5-3.3-3.3
			c0-1.8,1.5-3.3,3.3-3.3c1.8,0,3.3,1.5,3.3,3.3C50.9,48.6,49.4,50.1,47.6,50.1z"/>
	</g>
</g>
</svg>
