<?xml version="1.0" encoding="utf-8"?>
<!-- Generator: Adobe Illustrator 22.0.1, SVG Export Plug-In . SVG Version: 6.00 Build 0)  -->
<svg version="1.1" id="Layer_2" xmlns="http://www.w3.org/2000/svg" xmlns:xlink="http://www.w3.org/1999/xlink" x="0px" y="0px"
	 viewBox="0 0 128.5 1" style="enable-background:new 0 0 128.5 1;" xml:space="preserve">
<style type="text/css">
	.st0{fill:#D26520;}
	.st1{stroke:#000000;stroke-width:0.75;stroke-miterlimit:10;}
	.st2{fill:none;stroke:#C06126;stroke-width:2;stroke-miterlimit:10;}
	.st3{fill:#C06126;}
	.st4{fill:#FFFFFF;}
</style>
<g>
	<path class="st0" d="M337.9,123.2c0,0.1,0,0.3,0,0.4C338,123.6,338,123.5,337.9,123.2z"/>
	<path class="st0" d="M330.7,141c-6.8-15.2-8.3-10.3-8.3-10.3c2,3.5,1,8.3,1,8.3l-2.3,0.2c-10.3-13.5-10.7-8.5-10.7-8.5
		c2.3,4.3,1,14,1,14c-10.3,3.2-14.5,13.8-14.5,13.8c-5,7-8.2,6-8.2,6c-0.7,18.3,16,15.5,16,15.5c2.5,0.8,3.7,3,4.3,5
		c0.5,1.6,0.6,3,0.5,3.9c-1.4,1.7-3.3,3.7-5.6,5.7c-2.3,2-4.4,3.4-5.7,4.3c-4.2,2.7-7.8,4.2-9.6,4.9c-6.2,2.4-10.7,2.8-10.7,2.8
		c2.4-7.2,1.5-9.6,1.5-9.6c0.6-14.5-2.9-16.8-2.9-16.8c-11.3,0.3-10.8-1.5-10.8-1.5c-2.5-2.3-5-2.5-5-2.5l-20.5,0.3
		c-6.5,0.3-10.1-0.4-12-1.2c-0.9-0.4-1.6-1-2.3-1.6c-1.1-0.3-2.5-0.9-3.8-2.1c-1-0.9-2.1-1.9-2.1-3.4c0-1.2,0.9-2,0.9-2
		c-0.5-1.5-6.5-6.8-6.5-6.8l-2.8-13.8c-6.3-7.8,35.3-14.8,35.3-14.8c10.5-3.8,9.3-13.3,9.3-13.3c4.5-6.8,19-7.3,19-7.3
		c6.5-7.8,10.5-8.3,10.5-8.3c3.8-1,9.5,6,9.5,6c4,1,8-2.5,8-2.5c7.8-2,7.8,0,7.8,0c4.8,4.8,16.5,11.5,16.5,11.5
		c8.7,2.4,10.2,5.1,10.5,6.1c-1.4-14.4-11.7-20.8-11.7-20.8c-0.7-3.2-2.5-8-6.8-11c-1.9-1.3-3.7-1.9-10.7-3.3
		c-3.7-0.8-8.3-1.7-13.6-2.7c-6-2.6-13.5-3.7-19.5-4.2c-3.8-0.3-7.3-0.4-10.5-0.3c-6.7,0.7-16.8,2.5-27.7,8.1
		c-10.9,5.6-17.7,12.3-19.8,14.5c-1.8,1.8-9.9,10.4-15.4,24.2c-1.1,2.8-3.3,8.5-4.6,16.2c-0.7,3.9-1.5,8.8-1.1,15.3
		c0.3,5.7,1.4,10.1,2.2,13.3c0.1,0.5,1.1,4.5,2.7,8.7c6,16.3,16.2,27,16.2,27c1.8,1.9,9.1,9.4,21.3,15.3c11.9,5.8,22.7,7.3,29.4,7.7
		c7.7,0.4,24.1,0,40.6-9.7c12-7.1,19.1-16.4,21.8-19.8c1.2-1.5,5.5-7.4,9.5-16c2.7-5.7,4.4-10.8,5.5-14.9c1.8-10-4-20.3-4-20.3
		C340.2,146,330.7,141,330.7,141z"/>
	<path class="st0" d="M50.6,293.8h10v8.3c-1.9,0.6-4.8,1.3-8.4,0.9c-1.8-0.2-5.2-0.6-8.7-3.1c-1.2-0.8-3.6-2.8-5.3-6.2
		c-2.3-4.7-1.7-9.1-1.4-10.6c0.2-1.7,0.9-5.5,3.8-9c4.2-5,10-5.9,12.2-6.1c9.6-0.7,15.9,6.8,16.5,7.5l0.4-15.3c-1.8-1-4.4-2.2-7.6-3
		c-7.1-1.8-12.8-0.8-14.4-0.5c-2.3,0.5-9.5,2-15.6,8.1c-4.2,4.2-6,8.6-6.4,9.7c-1.8,4.7-1.8,8.7-1.7,11.8c0,2.1,0,4.8,1,8.3
		c1.2,4.2,3,7,3.4,7.6c2,2.9,4.1,4.7,5.4,5.8c4.7,3.9,9.4,5.3,11,5.8c5.2,1.4,9.3,1.1,12.6,0.7c3.6-0.4,9.5-1.5,16.3-5v-26.5h-23
		V293.8z"/>
	<path class="st0" d="M138,313.2h14.3l3.4-7.9l22-0.4l3.9,8.3H196l-29.4-57.1L138,313.2z M173.9,296.1h-14.8l7.9-16.9L173.9,296.1z"
		/>
	<path class="st0" d="M447,256.1l-28.6,57.1h14.3l3.4-7.9l22-0.4l3.9,8.3h14.5L447,256.1z M439.5,296.1l7.9-16.9l6.9,16.9H439.5z"/>
	<path class="st0" d="M121,288.6c1.8-1,3-2.1,3.7-2.7c1.1-1.1,2.3-2.7,3.2-4.9c1.2-3,1.1-5.6,1-7.6c-0.1-1.7-0.2-3.5-1.1-5.5
		c-0.8-1.7-1.8-2.9-2.5-3.6c-0.4-0.4-1.7-1.8-3.8-3.2c-4-2.5-8-3-9.7-3.2c-1-0.1-2-0.1-3.9-0.1c-2.3,0-2.8,0-6,0.1c-2.7,0-3,0-6.1,0
		c-2,0-3.6,0.1-4.7,0.1c-0.2,18.4-0.3,37.5-0.5,55.9h13.8l-0.1-22.6l16.2,22.6h15.3c-5.6-7.9-11.5-16.4-17.1-24.3
		C119.3,289.4,120.1,289.1,121,288.6z M116.1,279.9c-1,1.6-2.4,2.3-3.4,2.8c-3.5,1.7-7.1,1.3-8.9,1c0-5.2,0-10.3,0-15.5
		c0.9-0.1,6.7-0.5,10.1,1.8c0.4,0.3,1.3,0.9,2,2c0.7,1,1.1,2.3,1.2,4C117,276.7,117,278.3,116.1,279.9z"/>
	<polygon class="st0" points="218.9,257.8 205.4,257.8 205.4,313.2 239.7,313.2 239.7,301.8 218.7,301.8 	"/>
	<polygon class="st0" points="281.4,291.8 259.6,256.1 248.4,313.2 260.1,313.2 264.9,287.7 281.1,315.3 282.4,315.3 296.6,288.8 
		301.1,313.2 313.9,313.2 301.4,256.1 	"/>
	<polygon class="st0" points="372.5,283 406.9,315.8 408.4,315.8 408.4,257.7 396.1,258 396.1,288.5 362.3,256.8 360.9,256.8 
		360.9,313.2 372.8,313.2 	"/>
	<path class="st0" d="M520.6,290.8c-1.8-3.7-4.4-5.8-6.3-7.3c-1.8-1.4-5.9-3.8-7.1-4.2c-11.2-4-8.5-9.5-8.5-9.5
		c2.8-7.5,19.2,2.2,19.2,2.2c0-4.3,0-8.7,0-13c-0.8-0.3-2.1-0.7-3.6-1.1c-3.6-0.9-8.4-2.1-13.8-1.1c-2.4,0.4-6,1.1-9.3,4
		c-2.9,2.6-4.3,6-5,8.7c-0.3,1.5-0.6,4.1,0.2,7c1.2,4.3,4,6.8,7.1,9.3c4.8,3.9,10,6,10,6c7.2,3.7,5.5,7.8,5.5,7.8
		c-0.3,0.8-0.9,2-2.1,2.9c-3,2.4-7.6,1.1-11.1,0.1c-2.3-0.7-5.9-2-9.7-4.8l1,14.5c1.5,0.8,3.6,1.7,6.2,2.4c5,1.3,9.1,1,10.1,0.9
		c3.1-0.3,7.8-0.7,12.1-4.1c2.6-2.1,4.1-4.5,4.8-5.8c1.2-2.2,1.7-4.3,2-5.7C522.4,297.8,522.3,294.3,520.6,290.8z"/>
	<rect x="328.2" y="257.8" class="st0" width="13.5" height="55.5"/>
	<path class="st1" d="M93.9,326.6c-1.7,0-3.2,0.1-4.5,0.3v16c1.1,0.1,2.3,0.2,3.9,0.2c3.2,0,5.7-0.8,7.3-2.3
		c1.5-1.5,2.4-3.7,2.4-6.3c0-2.6-0.9-4.5-2.3-5.8C99.1,327.3,96.9,326.6,93.9,326.6z M93.6,341.5c-0.8,0-1.6,0-2.1-0.1v-12.8
		c0.6-0.1,1.4-0.2,2.5-0.2c4.5,0,6.7,2.4,6.7,6.3C100.6,338.9,98.2,341.5,93.6,341.5z"/>
	<rect x="124.5" y="326.8" class="st1" width="2.1" height="16.2"/>
	<rect x="244.5" y="326.8" class="st1" width="2.1" height="16.2"/>
	<rect x="336.8" y="326.8" class="st1" width="2.1" height="16.2"/>
	<path class="st1" d="M365.9,326.6c-1.7,0-3.2,0.1-4.5,0.3v16c1.1,0.1,2.3,0.2,3.9,0.2c3.2,0,5.7-0.8,7.3-2.3
		c1.5-1.5,2.4-3.7,2.4-6.3c0-2.6-0.9-4.5-2.3-5.8C371.1,327.3,368.9,326.6,365.9,326.6z M365.6,341.5c-0.8,0-1.6,0-2.1-0.1v-12.8
		c0.6-0.1,1.4-0.2,2.5-0.2c4.5,0,6.7,2.4,6.7,6.3C372.6,338.9,370.2,341.5,365.6,341.5z"/>
	<path class="st1" d="M154.4,333.8c-2.3-0.9-3.3-1.6-3.3-3.1c0-1.1,0.9-2.4,3.1-2.4c1.5,0,2.6,0.5,3.1,0.8l0.6-1.7
		c-0.7-0.4-1.9-0.8-3.6-0.8c-3.2,0-5.3,1.9-5.3,4.4c0,2.3,1.7,3.7,4.3,4.6c2.2,0.8,3.1,1.7,3.1,3.2c0,1.6-1.3,2.8-3.4,2.8
		c-1.5,0-2.9-0.5-3.8-1.1l-0.5,1.8c0.9,0.6,2.6,1,4.2,1c3.9,0,5.8-2.2,5.8-4.7C158.6,336.2,157.2,334.9,154.4,333.8z"/>
	<path class="st1" d="M218.8,335.3L218.8,335.3c1.7-0.6,3.1-2.1,3.1-4.2c0-1.3-0.5-2.4-1.3-3.1c-1-0.9-2.5-1.3-4.8-1.3
		c-1.5,0-3,0.1-4.1,0.3v16h2.1v-7h2c1.9,0.1,2.8,0.9,3.3,3.2c0.5,2,0.8,3.4,1.1,3.9h2.2c-0.3-0.6-0.7-2.2-1.3-4.5
		C220.8,336.9,220,335.7,218.8,335.3z M216,334.4h-2.2v-5.9c0.3-0.1,1.1-0.2,2.1-0.2c2.2,0,3.8,0.9,3.8,3
		C219.7,333.1,218.3,334.4,216,334.4z"/>
	<path class="st1" d="M438.8,335.3L438.8,335.3c1.7-0.6,3.1-2.1,3.1-4.2c0-1.3-0.5-2.4-1.3-3.1c-1-0.9-2.5-1.3-4.8-1.3
		c-1.5,0-3,0.1-4.1,0.3v16h2.1v-7h2c1.9,0.1,2.8,0.9,3.3,3.2c0.5,2,0.8,3.4,1.1,3.9h2.2c-0.3-0.6-0.7-2.2-1.3-4.5
		C440.8,336.9,440,335.7,438.8,335.3z M436,334.4h-2.2v-5.9c0.3-0.1,1.1-0.2,2.1-0.2c2.2,0,3.8,0.9,3.8,3
		C439.7,333.1,438.3,334.4,436,334.4z"/>
	<path class="st1" d="M468.4,326.8l-5.6,16.2h2.2l1.7-5.1h5.8l1.8,5.1h2.3l-5.6-16.2H468.4z M467.2,336.3l1.6-4.7
		c0.3-1,0.6-2,0.8-2.9h0c0.2,0.9,0.5,1.9,0.9,3l1.6,4.7H467.2z"/>
	<path class="st1" d="M403.2,327c-4.4,0-7.6,3.4-7.6,8.5c0,4.9,3,8.2,7.4,8.2c4.2,0,7.6-3,7.6-8.5C410.6,330.4,407.7,327,403.2,327z
		 M403.1,342.1c-3.3,0-5.2-3.1-5.2-6.6c0-3.6,1.8-6.8,5.3-6.8c3.5,0,5.2,3.4,5.2,6.6C408.3,339,406.4,342.1,403.1,342.1z"/>
	<path class="st1" d="M276.8,334.3L276.8,334.3c1.7-0.7,2.8-2,2.8-3.6c0-1.3-0.5-2.2-1.4-2.9c-1-0.8-2.4-1.2-4.5-1.2
		c-1.5,0-2.9,0.1-3.9,0.3v16c0.7,0.1,1.8,0.2,3.3,0.2c2.7,0,4.5-0.5,5.7-1.5c0.8-0.8,1.4-1.9,1.4-3.3
		C280.2,336,278.4,334.7,276.8,334.3z M272,328.4c0.3-0.1,0.9-0.1,1.9-0.1c2.1,0,3.6,0.7,3.6,2.6c0,1.6-1.3,2.7-3.6,2.7H272V328.4z
		 M273.8,341.5c-0.8,0-1.4,0-1.8-0.1v-6.2h1.8c2.3,0,4.2,0.9,4.2,3.1C278,340.7,276,341.5,273.8,341.5z"/>
	<path class="st1" d="M311.5,336.9c0,3.6-1.6,5.2-4,5.2c-2.2,0-3.8-1.5-3.8-5.2v-9.6h-2.1v9.6c0,5,2.5,6.9,5.9,6.9
		c3.6,0,6.2-2,6.2-7v-9.5h-2.1V336.9z"/>
	<polygon class="st1" points="178.7,328.5 183.7,328.5 183.7,343 185.8,343 185.8,328.5 190.8,328.5 190.8,326.8 178.7,326.8 	"/>
</g>
<g>
	<path class="st2" d="M-103.1,1240.3c-17.1,0-30.9,13.8-30.9,30.9s13.8,30.9,30.9,30.9c17.1,0,30.9-13.8,30.9-30.9
		S-86.1,1240.3-103.1,1240.3z M-92.2,1280.1c0,0.9-0.1,3.2-1.7,5.3c-1.1,1.4-2.3,2.2-2.9,2.5c-1.6,0.9-3.2,1.2-4.1,1.3v5.2h-4v-4.9
		c-5-1-9-4.6-9-4.6l3.6-3.8c0.4,0.4,3.6,3.8,7.5,3.1c0.6-0.1,2.8-0.5,3.9-2.3c0.2-0.3,0.7-1.2,0.4-2.4c-0.3-1.4-1.5-2.1-1.8-2.3
		c-2.8-1-5.1-2-6.7-2.8c-1.9-1-2.8-1.6-3.5-2.3c-1.4-1.4-2.1-2.9-2.5-4c-0.2-1-0.5-2.6,0.1-4.4c1-3.1,4-5.3,7.6-5.9l-0.1-4.7h4.8
		v4.8c0.9-0.1,2.5-0.1,4.3,0.7c1.5,0.6,2.6,1.5,3.2,2.1c-0.8,1.6-1.6,3.2-2.5,4.9c-0.5-0.6-1.4-1.7-3.1-2.5c-1.9-0.9-3.6-0.8-4-0.8
		c-1.2,0.1-3.3,0.3-4.3,1.9c-0.1,0.1-0.9,1.5-0.4,3c0.5,1.5,2,2.2,4.2,3.2c7.6,3.5,8.9,4.4,9.8,5.8
		C-92,1278.2-92.2,1280.1-92.2,1280.1z"/>
	<path class="st3" d="M-103.1,1270.3c-2.1-1-3.7-1.6-4.2-3.2c-0.5-1.5,0.3-2.9,0.4-3c1-1.7,3.1-1.8,4.3-1.9c0.5,0,2.2-0.1,4,0.8
		c1.6,0.8,2.6,1.9,3.1,2.5c0.8-1.6,1.6-3.2,2.5-4.9c-0.6-0.6-1.6-1.5-3.2-2.1c-1.8-0.7-3.4-0.7-4.3-0.7v-4.8h-4.8l0.1,4.7
		c-3.7,0.6-6.6,2.9-7.6,5.9c-0.6,1.8-0.4,3.4-0.1,4.4c0.4,1,1.1,2.6,2.5,4c0.8,0.7,1.6,1.3,3.5,2.3c1.6,0.8,3.8,1.9,6.7,2.8
		c0.2,0.1,1.5,0.8,1.8,2.3c0.2,1.1-0.3,2-0.4,2.4c-1,1.8-3.3,2.2-3.9,2.3c-3.9,0.7-7.1-2.7-7.5-3.1l-3.6,3.8c0,0,4,3.6,9,4.6v4.9h4
		v-5.2c0.9-0.1,2.4-0.3,4.1-1.3c0.6-0.3,1.8-1.1,2.9-2.5c1.6-2.1,1.7-4.4,1.7-5.3c0,0,0.1-1.9-1.2-4
		C-94.2,1274.7-95.5,1273.8-103.1,1270.3z"/>
</g>
<g>
	<path class="st2" d="M301.6,1259.1c-8.2-0.3-6.3,10.3-6.3,10.3h12.1C308.7,1258.9,301.6,1259.1,301.6,1259.1z"/>
	<path class="st2" d="M301.3,1240.3c-17.1,0-30.9,13.8-30.9,30.9s13.8,30.9,30.9,30.9c17.1,0,30.9-13.8,30.9-30.9
		S318.3,1240.3,301.3,1240.3z M314,1287.2h-25.6v-16c0-0.1,0.3-1.1,1.3-1.5c0.6-0.2,1.2-0.1,1.4-0.1c-0.8-15.8,10.1-14.5,10.1-14.5
		c12.4-0.2,10.1,14.1,10.1,14.1c0.3,0,0.9,0.1,1.5,0.3c0.7,0.3,1.2,0.8,1.4,1.1C314.1,1276.1,314,1281.7,314,1287.2z"/>
	<path class="st3" d="M312.7,1269.5c-0.6-0.3-1.1-0.3-1.5-0.3c0,0,2.3-14.3-10.1-14.1c0,0-10.9-1.3-10.1,14.5
		c-0.2-0.1-0.8-0.2-1.4,0.1c-1,0.4-1.3,1.3-1.3,1.5v16H314c0.1-5.5,0.1-11,0.2-16.6C313.9,1270.3,313.5,1269.9,312.7,1269.5z
		 M307.5,1269.4h-12.1c0,0-1.9-10.6,6.3-10.3C301.6,1259.1,308.7,1258.9,307.5,1269.4z"/>
</g>
<g>
	<circle class="st2" cx="699" cy="1284.3" r="3.3"/>
	
		<ellipse transform="matrix(0.9239 -0.3827 0.3827 0.9239 -436.7157 373.1259)" class="st2" cx="719.6" cy="1284.3" rx="3.3" ry="3.3"/>
	<polygon class="st2" points="693,1271.7 693,1273.3 702.7,1273.3 702.7,1266.6 697.8,1266.6 	"/>
	<path class="st2" d="M704.8,1239.6c-17.1,0-30.9,13.8-30.9,30.9s13.8,30.9,30.9,30.9c17.1,0,30.9-13.8,30.9-30.9
		S721.8,1239.6,704.8,1239.6z M725.8,1284.1c0,0-0.3,6.4-7.1,6.4c0,0-4.9-0.3-5.2-6.3h-8.8c0,0,0.2,6.6-6,6.3c-6.3-0.3-5.5-6-5.5-6
		l-4.3-0.1v-2.9h1.5v-11.1l6.4-6.2h5.3v-5.8h26.1v25.8H725.8z"/>
	<path class="st3" d="M702.2,1258.3v5.8h-5.3l-6.4,6.2v11.1h-1.5v2.9l4.3,0.1c0,0-0.8,5.7,5.5,6c6.3,0.3,6-6.3,6-6.3h8.8
		c0.3,6,5.2,6.3,5.2,6.3c6.8,0,7.1-6.4,7.1-6.4h2.4v-25.8H702.2z M699,1287.6c-1.8,0-3.3-1.5-3.3-3.3c0-1.8,1.5-3.3,3.3-3.3
		c1.8,0,3.3,1.5,3.3,3.3C702.3,1286.2,700.8,1287.6,699,1287.6z M702.7,1273.3H693v-1.6l4.8-5.1h4.8V1273.3z M719.6,1287.6
		c-1.8,0-3.3-1.5-3.3-3.3c0-1.8,1.5-3.3,3.3-3.3c1.8,0,3.3,1.5,3.3,3.3C722.9,1286.2,721.4,1287.6,719.6,1287.6z"/>
</g>
<rect x="0" y="0" class="st4" width="128.5" height="1"/>
</svg>
