<?xml version="1.0" encoding="utf-8"?>
<!-- Generator: Adobe Illustrator 22.0.1, SVG Export Plug-In . SVG Version: 6.00 Build 0)  -->
<svg version="1.1" id="Layer_1" xmlns="http://www.w3.org/2000/svg" xmlns:xlink="http://www.w3.org/1999/xlink" x="0px" y="0px"
	 viewBox="0 0 300 170" style="enable-background:new 0 0 300 170;" xml:space="preserve">
<style type="text/css">
	.st0{fill:#D26520;}
	.st1{stroke:#000000;stroke-width:0.75;stroke-miterlimit:10;}
</style>
<g>
	<path class="st0" d="M188.3,31.2c0,0.1,0,0.2,0,0.2C188.4,31.4,188.4,31.3,188.3,31.2z"/>
	<path class="st0" d="M184.2,41.4c-3.9-8.7-4.8-5.9-4.8-5.9c1.1,2,0.6,4.8,0.6,4.8l-1.3,0.1c-5.9-7.7-6.1-4.9-6.1-4.9
		c1.3,2.5,0.6,8,0.6,8c-5.9,1.8-8.3,7.9-8.3,7.9c-2.9,4-4.7,3.4-4.7,3.4c-0.4,10.5,9.2,8.9,9.2,8.9c1.4,0.4,2.1,1.7,2.5,2.9
		c0.3,0.9,0.3,1.7,0.3,2.2c-0.8,1-1.9,2.1-3.2,3.3c-1.3,1.2-2.5,2-3.3,2.5c-2.4,1.5-4.5,2.4-5.5,2.8c-3.6,1.4-6.1,1.6-6.1,1.6
		c1.4-4.1,0.8-5.5,0.8-5.5c0.4-8.3-1.7-9.6-1.7-9.6c-6.4,0.1-6.2-0.9-6.2-0.9c-1.4-1.3-2.9-1.4-2.9-1.4l-11.7,0.1
		c-3.7,0.1-5.8-0.3-6.9-0.7c-0.5-0.2-0.9-0.6-1.3-0.9c-0.7-0.2-1.5-0.5-2.2-1.2c-0.6-0.5-1.2-1.1-1.2-1.9c0-0.7,0.5-1.2,0.5-1.2
		c-0.3-0.9-3.7-3.9-3.7-3.9L116,44c-3.6-4.4,20.2-8.5,20.2-8.5c6-2.1,5.3-7.6,5.3-7.6c2.6-3.9,10.9-4.2,10.9-4.2
		c3.7-4.4,6-4.7,6-4.7c2.1-0.6,5.4,3.4,5.4,3.4c2.3,0.6,4.6-1.4,4.6-1.4c4.4-1.1,4.4,0,4.4,0c2.7,2.7,9.5,6.6,9.5,6.6
		c5,1.4,5.8,2.9,6,3.5c-0.8-8.3-6.7-11.9-6.7-11.9c-0.4-1.8-1.4-4.6-3.9-6.3c-1.1-0.8-2.1-1.1-6.1-1.9c-2.1-0.4-4.7-1-7.8-1.5
		c-3.4-1.5-7.7-2.1-11.2-2.4c-2.2-0.2-4.2-0.2-6-0.2c-3.9,0.4-9.6,1.5-15.9,4.6c-6.3,3.2-10.1,7.1-11.4,8.3c-1,1.1-5.6,6-8.8,13.8
		c-0.6,1.6-1.9,4.9-2.6,9.3c-0.4,2.2-0.9,5-0.7,8.8c0.2,3.3,0.8,5.8,1.3,7.6c0.1,0.3,0.7,2.6,1.5,5c3.4,9.3,9.3,15.5,9.3,15.5
		c1,1.1,5.2,5.4,12.2,8.7c6.8,3.3,13,4.2,16.8,4.4c4.4,0.2,13.8,0,23.3-5.6c6.9-4.1,11-9.4,12.5-11.4c0.7-0.9,3.1-4.2,5.5-9.2
		c1.5-3.3,2.5-6.2,3.1-8.6c1.1-5.7-2.3-11.7-2.3-11.7C189.7,44.2,184.2,41.4,184.2,41.4z"/>
	<path class="st0" d="M23.7,129h5.7v4.7c-1.1,0.3-2.8,0.7-4.8,0.5c-1-0.1-3-0.3-5-1.8c-0.7-0.5-2.1-1.6-3-3.5
		c-1.3-2.7-1-5.2-0.8-6.1c0.1-1,0.5-3.1,2.2-5.1c2.4-2.9,5.7-3.4,7-3.5c5.5-0.4,9.1,3.9,9.4,4.3l0.2-8.7c-1-0.6-2.5-1.2-4.4-1.7
		c-4-1-7.3-0.5-8.2-0.3c-1.3,0.3-5.4,1.1-9,4.7c-2.4,2.4-3.4,4.9-3.7,5.5c-1,2.7-1,5-1,6.8c0,1.2,0,2.8,0.6,4.7
		c0.7,2.4,1.7,4,1.9,4.3c1.1,1.7,2.3,2.7,3.1,3.3c2.7,2.2,5.4,3.1,6.3,3.3c3,0.8,5.3,0.6,7.2,0.4c2.1-0.2,5.5-0.8,9.3-2.9v-15.2
		H23.7V129z"/>
	<path class="st0" d="M73.8,140.1H82l1.9-4.5l12.6-0.2l2.2,4.7h8.3l-16.8-32.7L73.8,140.1z M94.3,130.2h-8.5l4.5-9.7L94.3,130.2z"/>
	<path class="st0" d="M250.8,107.3l-16.4,32.7h8.2l1.9-4.5l12.6-0.2l2.2,4.7h8.3L250.8,107.3z M246.5,130.2l4.5-9.7l3.9,9.7H246.5z"
		/>
	<path class="st0" d="M64,125.9c1-0.5,1.7-1.2,2.1-1.6c0.6-0.6,1.3-1.5,1.9-2.8c0.7-1.7,0.6-3.2,0.6-4.4c-0.1-1-0.1-2-0.6-3.1
		c-0.5-1-1-1.6-1.4-2.1c-0.2-0.3-1-1-2.2-1.8c-2.3-1.5-4.6-1.7-5.5-1.8c-0.6-0.1-1.1-0.1-2.2-0.1c-1.3,0-1.6,0-3.4,0
		c-1.6,0-1.7,0-3.5,0c-1.2,0-2.1,0-2.7,0c-0.1,10.6-0.2,21.5-0.3,32h7.9l-0.1-12.9l9.3,12.9h8.8c-3.2-4.5-6.6-9.4-9.8-13.9
		C63.1,126.4,63.5,126.2,64,125.9z M61.2,120.9c-0.5,0.9-1.4,1.3-2,1.6c-2,1-4.1,0.8-5.1,0.6c0-3,0-5.9,0-8.9c0.5,0,3.8-0.3,5.8,1
		c0.2,0.2,0.7,0.5,1.1,1.1c0.4,0.6,0.6,1.3,0.7,2.3C61.8,119.1,61.8,120,61.2,120.9z"/>
	<polygon class="st0" points="120.1,108.3 112.4,108.3 112.4,140.1 132.1,140.1 132.1,133.5 120,133.5 	"/>
	<polygon class="st0" points="155.9,127.8 143.5,107.3 137,140.1 143.8,140.1 146.5,125.4 155.8,141.3 156.5,141.3 164.7,126.1 
		167.3,140.1 174.6,140.1 167.4,107.3 	"/>
	<polygon class="st0" points="208.2,122.7 227.9,141.6 228.7,141.6 228.7,108.3 221.7,108.4 221.7,125.9 202.3,107.8 201.5,107.8 
		201.5,140.1 208.3,140.1 	"/>
	<path class="st0" d="M293,127.2c-1-2.1-2.5-3.3-3.6-4.2c-1-0.8-3.4-2.2-4.1-2.4c-6.4-2.3-4.9-5.4-4.9-5.4c1.6-4.3,11,1.2,11,1.2
		c0-2.5,0-5,0-7.4c-0.5-0.2-1.2-0.4-2.1-0.6c-2.1-0.5-4.8-1.2-7.9-0.7c-1.4,0.2-3.4,0.6-5.3,2.3c-1.7,1.5-2.5,3.4-2.9,5
		c-0.2,0.9-0.4,2.4,0.1,4c0.7,2.4,2.3,3.9,4.1,5.3c2.7,2.2,5.8,3.4,5.8,3.4c4.1,2.1,3.2,4.5,3.2,4.5c-0.2,0.5-0.5,1.1-1.2,1.7
		c-1.7,1.4-4.3,0.6-6.4,0.1c-1.3-0.4-3.4-1.1-5.5-2.8l0.6,8.3c0.9,0.4,2.1,1,3.6,1.4c2.9,0.8,5.2,0.6,5.8,0.5
		c1.8-0.2,4.5-0.4,6.9-2.4c1.5-1.2,2.4-2.6,2.8-3.3c0.7-1.3,1-2.5,1.1-3.3C294.1,131.2,294,129.2,293,127.2z"/>
	<rect x="182.8" y="108.3" class="st0" width="7.7" height="31.8"/>
	<path class="st1" d="M48.5,147.7c-1,0-1.8,0.1-2.6,0.2v9.1c0.6,0.1,1.3,0.1,2.2,0.1c1.8,0,3.3-0.5,4.2-1.3c0.9-0.9,1.4-2.1,1.4-3.6
		c0-1.5-0.5-2.6-1.3-3.3C51.5,148.1,50.2,147.7,48.5,147.7z M48.4,156.2c-0.5,0-0.9,0-1.2-0.1v-7.3c0.3-0.1,0.8-0.1,1.4-0.1
		c2.6,0,3.8,1.4,3.8,3.6C52.4,154.8,51,156.2,48.4,156.2z"/>
	<rect x="66" y="147.8" class="st1" width="1.2" height="9.3"/>
	<rect x="134.8" y="147.8" class="st1" width="1.2" height="9.3"/>
	<rect x="187.7" y="147.8" class="st1" width="1.2" height="9.3"/>
	<path class="st1" d="M204.3,147.7c-1,0-1.8,0.1-2.6,0.2v9.1c0.6,0.1,1.3,0.1,2.2,0.1c1.8,0,3.3-0.5,4.2-1.3
		c0.9-0.9,1.4-2.1,1.4-3.6c0-1.5-0.5-2.6-1.3-3.3C207.3,148.1,206.1,147.7,204.3,147.7z M204.2,156.2c-0.5,0-0.9,0-1.2-0.1v-7.3
		c0.3-0.1,0.8-0.1,1.4-0.1c2.6,0,3.8,1.4,3.8,3.6C208.2,154.8,206.8,156.2,204.2,156.2z"/>
	<path class="st1" d="M83.2,151.8c-1.3-0.5-1.9-0.9-1.9-1.8c0-0.6,0.5-1.4,1.8-1.4c0.9,0,1.5,0.3,1.8,0.4l0.3-1
		c-0.4-0.2-1.1-0.5-2.1-0.5c-1.8,0-3,1.1-3,2.5c0,1.3,0.9,2.1,2.5,2.6c1.3,0.5,1.8,1,1.8,1.8c0,0.9-0.7,1.6-2,1.6
		c-0.8,0-1.6-0.3-2.2-0.6l-0.3,1c0.5,0.3,1.5,0.6,2.4,0.6c2.2,0,3.3-1.2,3.3-2.7C85.6,153.2,84.8,152.5,83.2,151.8z"/>
	<path class="st1" d="M120.1,152.7L120.1,152.7c1-0.4,1.8-1.2,1.8-2.4c0-0.7-0.3-1.4-0.7-1.8c-0.6-0.5-1.4-0.8-2.7-0.8
		c-0.8,0-1.7,0.1-2.3,0.2v9.2h1.2v-4h1.1c1.1,0,1.6,0.5,1.9,1.8c0.3,1.2,0.5,2,0.6,2.2h1.3c-0.2-0.4-0.4-1.3-0.7-2.6
		C121.2,153.6,120.8,152.9,120.1,152.7z M118.5,152.2h-1.2v-3.4c0.2-0.1,0.6-0.1,1.2-0.1c1.3,0,2.2,0.5,2.2,1.7
		C120.6,151.5,119.8,152.2,118.5,152.2z"/>
	<path class="st1" d="M246.1,152.7L246.1,152.7c1-0.4,1.8-1.2,1.8-2.4c0-0.7-0.3-1.4-0.7-1.8c-0.6-0.5-1.4-0.8-2.7-0.8
		c-0.8,0-1.7,0.1-2.3,0.2v9.2h1.2v-4h1.1c1.1,0,1.6,0.5,1.9,1.8c0.3,1.2,0.5,2,0.6,2.2h1.3c-0.2-0.4-0.4-1.3-0.7-2.6
		C247.3,153.6,246.8,152.9,246.1,152.7z M244.5,152.2h-1.2v-3.4c0.2-0.1,0.6-0.1,1.2-0.1c1.3,0,2.2,0.5,2.2,1.7
		C246.7,151.5,245.8,152.2,244.5,152.2z"/>
	<path class="st1" d="M263.1,147.8l-3.2,9.3h1.3l1-2.9h3.3l1,2.9h1.3l-3.2-9.3H263.1z M262.4,153.3l0.9-2.7c0.2-0.6,0.3-1.1,0.5-1.7
		h0c0.1,0.5,0.3,1.1,0.5,1.7l0.9,2.7H262.4z"/>
	<path class="st1" d="M225.7,148c-2.5,0-4.4,1.9-4.4,4.9c0,2.8,1.7,4.7,4.2,4.7c2.4,0,4.4-1.7,4.4-4.9
		C230,149.9,228.3,148,225.7,148z M225.7,156.6c-1.9,0-3-1.8-3-3.8c0-2,1-3.9,3-3.9c2,0,3,1.9,3,3.8
		C228.7,154.8,227.6,156.6,225.7,156.6z"/>
	<path class="st1" d="M153.3,152.1L153.3,152.1c1-0.4,1.6-1.2,1.6-2.1c0-0.7-0.3-1.3-0.8-1.6c-0.6-0.5-1.4-0.7-2.6-0.7
		c-0.9,0-1.7,0.1-2.2,0.2v9.1c0.4,0.1,1,0.1,1.9,0.1c1.5,0,2.6-0.3,3.3-0.9c0.5-0.5,0.8-1.1,0.8-1.9
		C155.3,153.1,154.2,152.4,153.3,152.1z M150.6,148.8c0.2,0,0.5-0.1,1.1-0.1c1.2,0,2.1,0.4,2.1,1.5c0,0.9-0.8,1.6-2,1.6h-1.1V148.8z
		 M151.6,156.3c-0.4,0-0.8,0-1-0.1v-3.5h1c1.3,0,2.4,0.5,2.4,1.8C154,155.8,152.8,156.3,151.6,156.3z"/>
	<path class="st1" d="M173.2,153.6c0,2.1-0.9,3-2.3,3c-1.3,0-2.2-0.9-2.2-3v-5.5h-1.2v5.5c0,2.9,1.5,4,3.4,4c2,0,3.6-1.2,3.6-4v-5.4
		h-1.2V153.6z"/>
	<polygon class="st1" points="97.1,148.8 99.9,148.8 99.9,157.1 101.2,157.1 101.2,148.8 104,148.8 104,147.8 97.1,147.8 	"/>
</g>
</svg>
